<?xml version="1.0" standalone="no"?>
<!DOCTYPE svg PUBLIC "-//W3C//DTD SVG 20010904//EN"
 "http://www.w3.org/TR/2001/REC-SVG-20010904/DTD/svg10.dtd">
<svg version="1.0" xmlns="http://www.w3.org/2000/svg"
 width="700.000000pt" height="700.000000pt" viewBox="0 0 700.000000 700.000000"
 preserveAspectRatio="xMidYMid meet">
<metadata>
Created by potrace 1.14, written by Peter Selinger 2001-2017
</metadata>
<g transform="translate(0.000000,700.000000) scale(0.100000,-0.100000)"
fill="#000000" stroke="none">
<path d="M1831 5484 c-30 -8 -76 -26 -102 -41 -59 -31 -148 -123 -178 -181
-49 -96 -51 -120 -51 -682 0 -610 -3 -585 104 -805 100 -204 266 -443 485
-700 117 -138 440 -459 592 -588 706 -602 1425 -947 1973 -947 l107 0 -17 33
c-26 50 -140 212 -223 317 -97 123 -224 270 -430 499 -266 296 -420 470 -507
571 -504 592 -665 927 -600 1249 24 118 68 203 146 281 197 199 463 212 965
49 250 -81 473 -149 490 -149 42 0 -93 206 -224 343 -228 238 -582 492 -1002
720 l-86 47 -694 -1 c-573 0 -703 -3 -748 -15z"/>
<path d="M4535 5482 c11 -10 66 -58 123 -106 336 -289 559 -624 611 -920 16
-88 14 -262 -4 -331 -61 -234 -235 -385 -477 -416 -168 -21 -333 11 -764 149
-153 49 -294 93 -313 97 l-33 7 28 -48 c117 -205 290 -417 881 -1074 454 -507
661 -775 775 -1005 24 -47 45 -85 49 -85 4 0 17 24 30 53 l24 52 3 1640 2
1639 -21 64 c-40 121 -139 223 -267 274 -54 21 -71 23 -362 26 -298 3 -305 3
-285 -16z"/>
<path d="M1502 2305 c3 -423 3 -431 26 -487 53 -132 156 -231 280 -268 64 -19
89 -20 542 -18 l475 3 -50 34 c-421 287 -896 716 -1238 1121 l-38 45 3 -430z"/>
</g>
</svg>
